<svg width="50" height="50" viewBox="0 0 50 50" fill="none" xmlns="http://www.w3.org/2000/svg">
<path fill-rule="evenodd" clip-rule="evenodd" d="M37.5023 22.3958V32.8125L40.1898 35.5C41.5023 36.8125 40.5648 39.0625 38.7106 39.0625H11.2731C9.41897 39.0625 8.5023 36.8125 9.8148 35.5L12.5023 32.8125V22.3958C12.5023 15.9792 15.8981 10.6458 21.8773 9.22917V7.8125C21.8773 6.08333 23.2731 4.6875 25.0023 4.6875C26.7315 4.6875 28.1273 6.08333 28.1273 7.8125V9.22917C34.0856 10.6458 37.5023 16 37.5023 22.3958ZM29.1689 41.1458C29.1689 43.4375 27.2939 45.3125 25.0022 45.3125C22.6897 45.3125 20.8356 43.4375 20.8356 41.1458H29.1689Z" fill="white"/>
</svg>
