<svg width="50" height="50" viewBox="0 0 50 50" fill="none" xmlns="http://www.w3.org/2000/svg">
<path fill-rule="evenodd" clip-rule="evenodd" d="M10.4167 6.25H39.5833C41.875 6.25 43.75 8.125 43.75 10.4167V39.5833C43.75 41.875 41.875 43.75 39.5833 43.75H10.4167C8.125 43.75 6.25 41.875 6.25 39.5833V33.3333C6.25 32.1875 7.1875 31.25 8.33333 31.25C9.47917 31.25 10.4167 32.1875 10.4167 33.3333V37.5C10.4167 38.6458 11.3542 39.5833 12.5 39.5833H37.5C38.6458 39.5833 39.5833 38.6458 39.5833 37.5V12.5C39.5833 11.3542 38.6458 10.4167 37.5 10.4167H12.5C11.3542 10.4167 10.4167 11.3542 10.4167 12.5V16.6667C10.4167 17.8125 9.47917 18.75 8.33333 18.75C7.1875 18.75 6.25 17.8125 6.25 16.6667V10.4167C6.25 8.125 8.10417 6.25 10.4167 6.25ZM32.8958 26.4583L25.4167 33.9375C24.6042 34.75 23.2917 34.75 22.4792 33.9375C21.6875 33.1458 21.6667 31.8125 22.4792 31L26.3958 27.0833H8.33333C7.1875 27.0833 6.25 26.1458 6.25 25C6.25 23.8542 7.1875 22.9167 8.33333 22.9167H26.3958L22.4792 18.9792C21.6667 18.1667 21.6667 16.8542 22.4792 16.0417C22.8684 15.6516 23.3968 15.4323 23.9479 15.4323C24.499 15.4323 25.0274 15.6516 25.4167 16.0417L32.8958 23.5208C33.7083 24.3333 33.7083 25.6458 32.8958 26.4583Z" fill="white"/>
</svg>
