<svg width="50" height="50" viewBox="0 0 50 50" fill="none" xmlns="http://www.w3.org/2000/svg">
<path fill-rule="evenodd" clip-rule="evenodd" d="M22.8959 16.6666C22.8959 20.125 20.125 22.9166 16.6667 22.9166C13.2084 22.9166 10.4167 20.125 10.4167 16.6666C10.4167 13.2083 13.2084 10.4166 16.6667 10.4166C20.125 10.4166 22.8959 13.2083 22.8959 16.6666ZM39.5625 16.6666C39.5625 20.125 36.7917 22.9166 33.3334 22.9166C29.875 22.9166 27.0834 20.125 27.0834 16.6666C27.0834 13.2083 29.875 10.4166 33.3334 10.4166C36.7917 10.4166 39.5625 13.2083 39.5625 16.6666ZM16.6667 27.0833C11.8125 27.0833 2.08337 29.5208 2.08337 34.375V37.5C2.08337 38.6458 3.02087 39.5833 4.16671 39.5833H29.1667C30.3125 39.5833 31.25 38.6458 31.25 37.5V34.375C31.25 29.5208 21.5209 27.0833 16.6667 27.0833ZM31.3123 27.1875C32.0415 27.125 32.729 27.0833 33.3331 27.0833C38.1873 27.0833 47.9165 29.5208 47.9165 34.375V37.5C47.9165 38.6458 46.979 39.5833 45.8331 39.5833H35.0415C35.2706 38.9375 35.4165 38.2291 35.4165 37.5V34.375C35.4165 31.3125 33.7706 29 31.3956 27.2708C31.3893 27.2645 31.383 27.2563 31.3761 27.2473C31.3603 27.2266 31.3414 27.202 31.3123 27.1875Z" fill="white"/>
</svg>
