<svg width="50" height="50" viewBox="0 0 50 50" fill="none" xmlns="http://www.w3.org/2000/svg">
<path fill-rule="evenodd" clip-rule="evenodd" d="M31.6388 30.149H33.2847L42.118 39.024C42.9722 39.8782 42.9722 41.274 42.118 42.1282C41.2638 42.9824 39.868 42.9824 39.0138 42.1282L30.1597 33.274V31.6282L29.5972 31.0449C26.6805 33.5449 22.7013 34.8365 18.4722 34.1282C12.6805 33.149 8.0555 28.3157 7.34717 22.4824C6.26384 13.6699 13.6805 6.25322 22.493 7.33655C28.3263 8.04488 33.1597 12.6699 34.1388 18.4615C34.8472 22.6907 33.5555 26.6699 31.0555 29.5865L31.6388 30.149ZM11.4095 20.774C11.4095 25.9615 15.597 30.149 20.7845 30.149C25.972 30.149 30.1595 25.9615 30.1595 20.774C30.1595 15.5865 25.972 11.399 20.7845 11.399C15.597 11.399 11.4095 15.5865 11.4095 20.774Z" fill="#F0A500"/>
</svg>
