<svg aria-hidden="true" style="position: absolute; width: 0; height: 0; overflow: hidden;" version="1.1" xmlns="http://www.w3.org/2000/svg" xmlns:xlink="http://www.w3.org/1999/xlink">
<defs>
<symbol id="icon-library_add" viewBox="0 0 24 24">
<path d="M18.984 11.016v-2.016h-3.984v-3.984h-2.016v3.984h-3.984v2.016h3.984v3.984h2.016v-3.984h3.984zM20.016 2.016q0.797 0 1.383 0.586t0.586 1.383v12q0 0.797-0.586 1.406t-1.383 0.609h-12q-0.797 0-1.406-0.609t-0.609-1.406v-12q0-0.797 0.609-1.383t1.406-0.586h12zM3.984 6v14.016h14.016v1.969h-14.016q-0.797 0-1.383-0.586t-0.586-1.383v-14.016h1.969z"></path>
</symbol>
<symbol id="icon-add" viewBox="0 0 24 24">
<path d="M18.984 12.984h-6v6h-1.969v-6h-6v-1.969h6v-6h1.969v6h6v1.969z"></path>
</symbol>
<symbol id="icon-clear" viewBox="0 0 24 24">
<path d="M18.984 6.422l-5.578 5.578 5.578 5.578-1.406 1.406-5.578-5.578-5.578 5.578-1.406-1.406 5.578-5.578-5.578-5.578 1.406-1.406 5.578 5.578 5.578-5.578z"></path>
</symbol>
<symbol id="icon-remove" viewBox="0 0 24 24">
<path d="M18.984 12.984h-13.969v-1.969h13.969v1.969z"></path>
</symbol>
<symbol id="icon-send" viewBox="0 0 24 24">
<path d="M2.016 21v-6.984l15-2.016-15-2.016v-6.984l21 9z"></path>
</symbol>
<symbol id="icon-keyboard_backspace" viewBox="0 0 24 24">
<path d="M21 11.016v1.969h-14.156l3.563 3.609-1.406 1.406-6-6 6-6 1.406 1.406-3.563 3.609h14.156z"></path>
</symbol>
<symbol id="icon-arrow_back" viewBox="0 0 24 24">
<path d="M20.016 11.016v1.969h-12.188l5.578 5.625-1.406 1.406-8.016-8.016 8.016-8.016 1.406 1.406-5.578 5.625h12.188z"></path>
</symbol>
<symbol id="icon-arrow_forward" viewBox="0 0 24 24">
<path d="M12 3.984l8.016 8.016-8.016 8.016-1.406-1.406 5.578-5.625h-12.188v-1.969h12.188l-5.578-5.625z"></path>
</symbol>
<symbol id="icon-check" viewBox="0 0 24 24">
<path d="M9 16.172l10.594-10.594 1.406 1.406-12 12-5.578-5.578 1.406-1.406z"></path>
</symbol>
<symbol id="icon-menu" viewBox="0 0 24 24">
<path d="M3 6h18v2.016h-18v-2.016zM3 12.984v-1.969h18v1.969h-18zM3 18v-2.016h18v2.016h-18z"></path>
</symbol>
<symbol id="icon-group" viewBox="0 0 24 24">
<path d="M15.984 12.984q1.313 0 2.859 0.375t2.859 1.219 1.313 1.922v2.484h-6v-2.484q0-2.063-1.969-3.469 0.328-0.047 0.938-0.047zM8.016 12.984q1.313 0 2.859 0.375t2.836 1.219 1.289 1.922v2.484h-14.016v-2.484q0-1.078 1.313-1.922t2.859-1.219 2.859-0.375zM8.016 11.016q-1.219 0-2.109-0.891t-0.891-2.109 0.891-2.109 2.109-0.891 2.086 0.891 0.867 2.109-0.867 2.109-2.086 0.891zM15.984 11.016q-1.219 0-2.109-0.891t-0.891-2.109 0.891-2.109 2.109-0.891 2.109 0.891 0.891 2.109-0.891 2.109-2.109 0.891z"></path>
</symbol>
<symbol id="icon-notifications_on" viewBox="0 0 24 24">
<path d="M12 21.984q-0.844 0-1.43-0.586t-0.586-1.383h3.984q0 0.844-0.563 1.406t-1.406 0.563zM18 11.016v4.969l2.016 2.016v0.984h-16.031v-0.984l2.016-2.016v-4.969q0-2.344 1.195-4.078t3.305-2.25v-0.703q0-0.609 0.422-1.055t1.078-0.445 1.078 0.445 0.422 1.055v0.703q2.109 0.516 3.305 2.25t1.195 4.078zM19.969 10.5q-0.094-1.688-1.125-3.563t-2.391-2.859l1.406-1.406q3.891 3 4.125 7.828h-2.016zM7.594 4.078q-1.359 0.984-2.414 2.859t-1.148 3.563h-2.016q0.234-4.828 4.125-7.828z"></path>
</symbol>
<symbol id="icon-share" viewBox="0 0 24 24">
<path d="M18 16.078q1.219 0 2.063 0.867t0.844 2.039q0 1.219-0.867 2.086t-2.039 0.867-2.039-0.867-0.867-2.086q0-0.469 0.047-0.656l-7.078-4.125q-0.891 0.797-2.063 0.797-1.219 0-2.109-0.891t-0.891-2.109 0.891-2.109 2.109-0.891q1.172 0 2.063 0.797l7.031-4.078q-0.094-0.469-0.094-0.703 0-1.219 0.891-2.109t2.109-0.891 2.109 0.891 0.891 2.109-0.891 2.109-2.109 0.891q-1.125 0-2.063-0.844l-7.031 4.125q0.094 0.469 0.094 0.703t-0.094 0.703l7.125 4.125q0.844-0.75 1.969-0.75z"></path>
</symbol>
<symbol id="icon-delete" viewBox="0 0 24 24">
<path d="M18.984 3.984v2.016h-13.969v-2.016h3.469l1.031-0.984h4.969l1.031 0.984h3.469zM6 18.984v-12h12v12q0 0.797-0.609 1.406t-1.406 0.609h-7.969q-0.797 0-1.406-0.609t-0.609-1.406z"></path>
</symbol>
<symbol id="icon-search" viewBox="0 0 24 24">
<path d="M9.516 14.016q1.875 0 3.188-1.313t1.313-3.188-1.313-3.188-3.188-1.313-3.188 1.313-1.313 3.188 1.313 3.188 3.188 1.313zM15.516 14.016l4.969 4.969-1.5 1.5-4.969-4.969v-0.797l-0.281-0.281q-1.781 1.547-4.219 1.547-2.719 0-4.617-1.875t-1.898-4.594 1.898-4.617 4.617-1.898 4.594 1.898 1.875 4.617q0 0.984-0.469 2.227t-1.078 1.992l0.281 0.281h0.797z"></path>
</symbol>
<symbol id="icon-arrow_right_alt" viewBox="0 0 24 24">
<path d="M16.031 11.016v-3l3.984 3.984-3.984 3.984v-3h-12.047v-1.969h12.047z"></path>
</symbol>
<symbol id="icon-logout" viewBox="0 0 24 24">
<path d="M3.984 5.016v13.969h8.016v2.016h-8.016q-0.797 0-1.383-0.609t-0.586-1.406v-13.969q0-0.797 0.586-1.406t1.383-0.609h8.016v2.016h-8.016zM17.016 6.984l4.969 5.016-4.969 5.016-1.406-1.453 2.578-2.578h-10.172v-1.969h10.172l-2.578-2.625z"></path>
</symbol>
<symbol id="icon-person_add_alt_1" viewBox="0 0 24 24">
<path d="M12.984 8.016q0-1.125-0.539-2.039t-1.43-1.453-2.016-0.539-2.016 0.539-1.43 1.453-0.539 2.039q0 1.078 0.539 1.992t1.43 1.453 2.016 0.539 2.016-0.539 1.43-1.453 0.539-1.992zM15 9.984v2.016h3v3h2.016v-3h3v-2.016h-3v-3h-2.016v3h-3zM0.984 18v2.016h16.031v-2.016q0-0.797-0.563-1.43t-1.477-1.125-1.992-0.797-2.133-0.469-1.852-0.164-1.852 0.164-2.133 0.469-1.992 0.797-1.477 1.125-0.563 1.43z"></path>
</symbol>
<symbol id="icon-person_remove" viewBox="0 0 24 24">
<path d="M14.016 8.016q0-1.125-0.539-2.039t-1.453-1.453-2.039-0.539q-1.078 0-1.992 0.539t-1.453 1.453-0.539 2.039q0 1.078 0.539 1.992t1.453 1.453 1.992 0.539q1.125 0 2.039-0.539t1.453-1.453 0.539-1.992zM17.016 9.984v2.016h6v-2.016h-6zM2.016 18v2.016h15.984v-2.016q0-0.797-0.563-1.43t-1.477-1.125-1.992-0.797-2.133-0.469-1.852-0.164-1.828 0.164-2.109 0.469-1.992 0.797-1.477 1.125-0.563 1.43z"></path>
</symbol>
</defs>
</svg>
